# This file uses centimeters as units for non-parametric coordinates.

mtllib ClothDangle.mtl
v 1.399528 0.951057 -0.263159
v 1.399527 0.788973 -0.452986
v 1.399527 0.489151 -0.548799
v 1.370733 0.012261 -0.587599
v 1.266437 -0.669940 -0.603175
v 1.132962 -1.545420 -0.552486
v 1.041859 -2.531582 -0.579210
v 1.021657 -3.467432 -0.490256
v 1.002913 -4.148098 -0.247354
v 1.000051 -4.398129 0.000000
v 1.002913 -4.148098 0.247354
v 1.021657 -3.467432 0.490256
v 1.041859 -2.531582 0.579210
v 1.132962 -1.545420 0.552486
v 1.266437 -0.669940 0.603175
v 1.370733 0.012261 0.587598
v 1.399528 0.489151 0.548799
v 1.399527 0.788972 0.452985
v 1.399528 0.951057 0.263159
v 1.399528 1.000000 -0.000000
v -1.399528 0.951057 -0.263159
v -1.399528 0.788973 -0.452986
v -1.399528 0.489151 -0.548799
v -1.370733 0.012261 -0.587599
v -1.266437 -0.669940 -0.603175
v -1.132962 -1.545420 -0.552486
v -1.041859 -2.531582 -0.579210
v -1.021657 -3.467432 -0.490256
v -1.002913 -4.148098 -0.247354
v -1.000051 -4.398129 0.000000
v -1.002913 -4.148098 0.247354
v -1.021657 -3.467432 0.490256
v -1.041859 -2.531582 0.579210
v -1.132962 -1.545420 0.552486
v -1.266437 -0.669940 0.603175
v -1.370733 0.012261 0.587598
v -1.399528 0.489151 0.548799
v -1.399528 0.788972 0.452985
v -1.399528 0.951057 0.263159
v -1.399528 1.000000 -0.000000
vt 0.389312 0.469194
vt 0.389245 0.449347
vt 0.389188 0.424359
vt 0.391363 0.386340
vt 0.399495 0.332147
vt 0.409919 0.262509
vt 0.417038 0.184260
vt 0.418583 0.109875
vt 0.419999 0.052769
vt 0.420193 0.024993
vt 0.422851 0.926402
vt 0.421170 0.869577
vt 0.419243 0.795601
vt 0.411607 0.717800
vt 0.400704 0.648496
vt 0.392181 0.594498
vt 0.389724 0.556566
vt 0.389603 0.531582
vt 0.389498 0.511738
vt 0.389401 0.490470
vt 0.611478 0.468561
vt 0.611424 0.448725
vt 0.611329 0.423689
vt 0.608929 0.385696
vt 0.600459 0.331538
vt 0.589585 0.261985
vt 0.582002 0.183811
vt 0.580044 0.109459
vt 0.578364 0.052395
vt 0.580417 0.953605
vt 0.580575 0.925953
vt 0.581936 0.869117
vt 0.583438 0.795137
vt 0.590626 0.717282
vt 0.601125 0.647915
vt 0.609339 0.593877
vt 0.611572 0.555926
vt 0.611553 0.530944
vt 0.611531 0.511102
vt 0.611515 0.489836
vt 0.423164 0.954046
vt 0.578051 0.024639
vn 0.000000 0.906464 -0.422284
vn 0.000000 0.525953 -0.850514
vn 0.000000 0.525953 -0.850514
vn 0.000000 0.906464 -0.422284
vn -0.000000 0.173444 -0.984844
vn -0.000000 0.173444 -0.984844
vn -0.000000 0.049558 -0.998771
vn -0.000000 0.049558 -0.998771
vn -0.000000 -0.016757 -0.999860
vn -0.000000 -0.016757 -0.999860
vn -0.000000 -0.018186 -0.999835
vn -0.000000 -0.018186 -0.999835
vn -0.000000 -0.028615 -0.999591
vn -0.000000 -0.028615 -0.999591
vn -0.000000 -0.198150 -0.980172
vn -0.000000 -0.198150 -0.980172
vn -0.000000 -0.463290 -0.886207
vn -0.000000 -0.463290 -0.886207
vn -0.000000 -1.000000 0.000000
vn -0.000000 -1.000000 0.000000
vn -0.000000 -0.463290 0.886207
vn -0.000000 -0.463290 0.886207
vn -0.000000 -0.198150 0.980172
vn -0.000000 -0.198150 0.980172
vn -0.000000 -0.028615 0.999591
vn -0.000000 -0.028615 0.999591
vn -0.000000 -0.018186 0.999835
vn -0.000000 -0.018186 0.999835
vn -0.000000 -0.016757 0.999860
vn -0.000000 -0.016757 0.999860
vn -0.000000 0.049558 0.998771
vn -0.000000 0.049558 0.998771
vn -0.000000 0.173444 0.984844
vn -0.000000 0.173444 0.984844
vn 0.000000 0.525953 0.850514
vn 0.000000 0.525953 0.850514
vn 0.000000 0.906463 0.422285
vn 0.000000 0.906463 0.422285
vn 0.000000 1.000000 0.000001
vn 0.000000 1.000000 0.000001
s 1
usemtl drapeSG
f 1/1/1 2/2/2 22/22/3 21/21/4
f 2/2/2 3/3/5 23/23/6 22/22/3
f 3/3/5 4/4/7 24/24/8 23/23/6
f 4/4/7 5/5/9 25/25/10 24/24/8
f 5/5/9 6/6/11 26/26/12 25/25/10
f 6/6/11 7/7/13 27/27/14 26/26/12
f 7/7/13 8/8/15 28/28/16 27/27/14
f 8/8/15 9/9/17 29/29/18 28/28/16
f 9/9/17 10/10/19 30/42/20 29/29/18
f 10/41/19 11/11/21 31/31/22 30/30/20
f 11/11/21 12/12/23 32/32/24 31/31/22
f 12/12/23 13/13/25 33/33/26 32/32/24
f 13/13/25 14/14/27 34/34/28 33/33/26
f 14/14/27 15/15/29 35/35/30 34/34/28
f 15/15/29 16/16/31 36/36/32 35/35/30
f 16/16/31 17/17/33 37/37/34 36/36/32
f 17/17/33 18/18/35 38/38/36 37/37/34
f 18/18/35 19/19/37 39/39/38 38/38/36
f 19/19/37 20/20/39 40/40/40 39/39/38
f 20/20/39 1/1/1 21/21/4 40/40/40
